Coordinates
version=1
nRows=5
nColumns=40
inDegrees=yes

Units are S.I. units (second, meters, Newtons, ...)
Angles are in degrees.

endheader
time	pelvis_tilt	pelvis_list	pelvis_rotation	pelvis_tx	pelvis_ty	pelvis_tz	hip_flexion_r	hip_adduction_r	hip_rotation_r	knee_angle_r	knee_angle_r_beta	ankle_angle_r	subtalar_angle_r	mtp_angle_r	hip_flexion_l	hip_adduction_l	hip_rotation_l	knee_angle_l	knee_angle_l_beta	ankle_angle_l	subtalar_angle_l	mtp_angle_l	lumbar_extension	lumbar_bending	lumbar_rotation	arm_flex_r	arm_add_r	arm_rot_r	elbow_flex_r	pro_sup_r	wrist_flex_r	wrist_dev_r	arm_flex_l	arm_add_l	arm_rot_l	elbow_flex_l	pro_sup_l	wrist_flex_l	wrist_dev_l
     15.75000000	      1.07647542	     23.85785119	     77.56635340	      0.47302616	      1.01884403	     -1.02935271	      3.18562838	     -2.89095845	      6.39498123	     45.03323100	      0.78597815	     10.07145318	      0.00000000	      0.00000000	    -28.91955427	      6.53640271	    -12.18792883	      1.52839214	      0.02667548	     11.86065884	      0.00000000	      0.00000000	    -37.74588890	     -3.77602949	      1.48675848	      6.73802927	    -11.70503161	      1.98454416	    142.64169773	     85.81357191	      0.00000000	      0.00000000	      5.38597981	    -13.12730899	      1.81224525	    144.01644051	     81.53713497	      0.00000000	      0.00000000
     15.76000000	      1.03212311	     23.30095180	     77.93332305	      0.47203874	      1.01779570	     -1.02751673	      4.10180529	     -2.74932502	      5.66813778	     41.84604849	      0.73035133	     10.04404089	      0.00000000	      0.00000000	    -29.17403939	      6.52251412	    -12.01904484	      1.18584069	      0.02069682	     12.27014376	      0.00000000	      0.00000000	    -37.49267794	     -3.52197789	      1.07392119	      6.68760203	    -11.72363797	      1.90343651	    142.46513072	     85.81688754	      0.00000000	      0.00000000	      5.29699247	    -13.19898451	      1.56634916	    143.95301639	     81.53352817	      0.00000000	      0.00000000
     15.77000000	      0.82176197	     22.74613099	     78.29165569	      0.47127539	      1.01643001	     -1.02557045	      4.94982632	     -2.78587940	      4.99045737	     38.44770363	      0.67103902	      9.96917209	      0.00000000	      0.00000000	    -29.34794839	      6.66050260	    -11.97235318	      0.93181177	      0.01626318	     12.67224857	      0.00000000	      0.00000000	    -37.24232027	     -3.46109368	      0.64916500	      6.59425067	    -11.66669686	      1.90025542	    142.29532372	     85.82351800	      0.00000000	      0.00000000	      5.22983229	    -13.31406824	      1.31750701	    143.92559768	     81.59435276	      0.00000000	      0.00000000
     15.78000000	      0.53989115	     22.17618501	     78.60805625	      0.47072667	      1.01467237	     -1.02353099	      5.75644943	     -2.86906104	      4.47612068	     34.88774553	      0.60890603	      9.63327074	      0.00000000	      0.00000000	    -29.45520748	      6.86147516	    -11.93715644	      0.76887549	      0.01341941	     13.12067002	      0.00000000	      0.00000000	    -36.96467668	     -3.51494642	      0.25176146	      6.51008351	    -11.55323809	      1.85839010	    142.06024102	     85.82865169	      0.00000000	      0.00000000	      5.17975436	    -13.45090272	      1.08475696	    143.86955545	     81.62488909	      0.00000000	      0.00000000
     15.79000000	      0.13414592	     21.59202778	     78.84826197	      0.47048395	      1.01253451	     -1.02150010	      6.58955368	     -3.05284185	      4.14827290	     31.27368849	      0.54582883	      9.13156707	      0.00000000	      0.00000000	    -29.52413014	      7.21619822	    -11.82361468	      0.62485112	      0.01090571	     13.47747800	      0.00000000	      0.00000000	    -36.64612341	     -3.74879665	     -0.08261863	      6.40947972	    -11.38871582	      1.81775393	    141.76407068	     85.70643992	      0.00000000	      0.00000000	      5.16149583	    -13.60573963	      0.87774156	    143.77647068	     81.51110680	      0.00000000	      0.00000000
